<svg width="697" height="109" viewBox="0 0 697 109" fill="none" xmlns="http://www.w3.org/2000/svg">
<mask id="mask0_2818_8906" style="mask-type:alpha" maskUnits="userSpaceOnUse" x="139" y="31" width="558" height="51">
<path fill-rule="evenodd" clip-rule="evenodd" d="M650.752 31.6172V81.2995H696.499V72.1915H659.943V61.0123H689.381V51.9044H659.943V40.7251H696.499V31.6172H650.752ZM593.326 31.6172V81.2995H633.406C638.728 81.2995 643.081 77.0212 643.081 71.7079V61.0123C643.081 58.5281 641.976 56.1134 640.386 54.457C640.87 53.4223 641.077 52.2488 641.077 50.9381V41.2083C641.077 35.8952 636.723 31.6172 631.471 31.6172H593.326ZM602.449 50.9395V41.2097C602.449 40.9338 602.657 40.7266 602.933 40.7266H631.473C631.68 40.7266 631.887 40.9338 631.887 41.2097V50.9395C631.887 51.2155 631.68 51.4222 631.473 51.4222H602.933C602.657 51.4222 602.449 51.2155 602.449 50.9395ZM602.449 71.7111V61.0155C602.449 60.7395 602.657 60.6016 602.933 60.6016H633.408C633.684 60.6016 633.892 60.7395 633.892 61.0155V71.7111C633.892 71.9872 633.684 72.1947 633.408 72.1947H602.933C602.657 72.1947 602.449 71.9872 602.449 71.7111ZM576.326 31.6172V71.7079C576.326 71.9841 576.118 72.1915 575.911 72.1915H545.367C545.09 72.1915 544.883 71.9841 544.883 71.7079V31.6172H535.762V71.7079C535.762 77.0212 540.046 81.2995 545.367 81.2995H575.911C581.163 81.2995 585.517 77.0212 585.517 71.7079V31.6172H576.326ZM488.704 31.6172C483.383 31.6172 479.098 35.8952 479.098 41.2083V71.7079C479.098 77.0212 483.383 81.2995 488.704 81.2995H528.715V72.1915H488.704C488.427 72.1915 488.219 71.9841 488.219 71.7079V41.2083C488.219 40.9323 488.427 40.7251 488.704 40.7251H528.715V31.6172H488.704ZM400.318 31.6172V81.2995H440.399C445.72 81.2995 450.073 77.0212 450.073 71.7079V41.2083C450.073 35.8952 445.72 31.6172 440.399 31.6172H400.318ZM409.439 71.7093V41.2097C409.439 40.9338 409.647 40.7266 409.923 40.7266H440.398C440.674 40.7266 440.882 40.9338 440.882 41.2097V71.7093C440.882 71.9855 440.674 72.193 440.398 72.193H409.923C409.647 72.193 409.439 71.9855 409.439 71.7093ZM347.385 31.6172V81.2995H393.132V72.1915H356.575V61.0123H386.015V51.9044H356.575V40.7251H393.132V31.6172H347.385ZM289.752 31.6172V81.2995H329.832C335.153 81.2995 339.507 77.0212 339.507 71.7079V41.2083C339.507 35.8952 335.153 31.6172 329.832 31.6172H289.752ZM298.873 71.7093V41.2097C298.873 40.9338 299.081 40.7266 299.357 40.7266H329.831C330.108 40.7266 330.316 40.9338 330.316 41.2097V71.7093C330.316 71.9855 330.108 72.193 329.831 72.193H299.357C299.081 72.193 298.873 71.9855 298.873 71.7093ZM274.48 81.2995H283.602V31.6172H274.48V81.2995ZM226.866 31.6172C221.545 31.6172 217.26 35.8952 217.26 41.2083V51.4207C217.26 56.7345 221.545 61.0123 226.866 61.0123H257.41C257.617 61.0123 257.825 61.2198 257.825 61.4957V71.7079C257.825 71.9841 257.617 72.1915 257.41 72.1915H226.866C226.589 72.1915 226.382 71.9841 226.382 71.7079V67.9128H217.26V71.7079C217.26 77.0212 221.545 81.2995 226.866 81.2995H257.41C262.662 81.2995 267.016 77.0212 267.016 71.7079V61.4957C267.016 56.1824 262.662 51.9044 257.41 51.9044H226.866C226.589 51.9044 226.382 51.6969 226.382 51.4207V41.2083C226.382 40.9323 226.589 40.7251 226.866 40.7251H257.41C257.617 40.7251 257.825 40.9323 257.825 41.2083V45.0037H267.016V41.2083C267.016 35.8952 262.662 31.6172 257.41 31.6172H226.866ZM148.572 31.6172C143.319 31.6172 139.035 35.8952 139.035 41.139V44.7275H148.088V41.139C148.088 40.8633 148.295 40.6564 148.572 40.6564H176.835C177.111 40.6564 177.319 40.8633 177.319 41.139V51.076C177.319 51.2827 177.111 51.4902 176.835 51.4902H147.604V60.5299H178.839C179.046 60.5299 179.254 60.7364 179.254 61.0123V71.7774C179.254 72.0533 179.046 72.2603 178.839 72.2603H148.572C148.295 72.2603 148.088 72.0533 148.088 71.7774V68.8098H139.035V71.7774C139.035 77.0212 143.319 81.2995 148.572 81.2995H178.839C184.091 81.2995 188.307 77.0212 188.307 71.7774V61.0123C188.307 58.5281 187.27 56.1824 185.681 54.5265C186.164 53.491 186.372 52.318 186.372 51.076V41.139C186.372 35.8952 182.087 31.6172 176.835 31.6172H148.572Z" fill="white"/>
</mask>
<g mask="url(#mask0_2818_8906)">
<path fill-rule="evenodd" clip-rule="evenodd" d="M125.746 97.8242H709.789V21.6016H125.746V97.8242Z" fill="white"/>
</g>
<path fill-rule="evenodd" clip-rule="evenodd" d="M83.1896 108.966L82.7938 108.869L74.2098 105.268C73.8987 105.137 73.6384 104.909 73.4683 104.618C73.1587 104.089 73.1907 103.427 73.5502 102.929L73.5858 102.88C73.7901 102.597 74.0842 102.391 74.4205 102.295L98.9526 95.2904L67.4164 77.8859C63.4898 75.6287 62.8797 71.9838 64.2913 69.5411C65.2517 67.8862 67.0539 66.9002 69.117 66.9002C70.4291 66.9002 71.767 67.2864 73.0946 68.0489L104.018 86.5514L97.829 61.8348C97.754 61.5363 97.7708 61.222 97.8768 60.9329C98.0774 60.3852 98.5713 59.9975 99.1524 59.9311L99.2136 59.924C99.6081 59.8792 100.005 59.9871 100.321 60.2258L107.753 65.8272L108.044 66.1348L108.253 66.5568L116.37 94.7311L116.898 96.6908C117.125 97.7359 116.977 98.727 116.505 99.5481C116.03 100.369 115.244 100.992 114.289 101.302L112.269 101.844L83.6771 108.938L83.2689 108.971L83.1896 108.966ZM33.8306 108.973L5.26653 101.883L3.29548 101.357C2.26929 101.027 1.48052 100.404 1.00797 99.5854C0.530585 98.7643 0.382388 97.7729 0.594388 96.7968L1.13303 94.7864L9.25691 66.5918L9.42061 66.2386L9.75742 65.8622L17.1851 60.2596C17.4517 60.0584 17.7761 59.9482 18.1101 59.9454C18.7245 59.9403 19.2837 60.2958 19.5384 60.8529L19.5684 60.9182C19.7143 61.2376 19.7474 61.5967 19.6622 61.937L13.4903 86.5837L44.3956 68.0941C45.7436 67.3212 47.0786 66.935 48.3936 66.935C50.4541 66.935 52.2589 67.921 53.219 69.5736C54.6334 72.016 54.0207 75.6638 50.1145 77.9081L18.5605 95.3251L43.1584 102.347C43.4522 102.431 43.7146 102.6 43.9126 102.832C44.2875 103.272 44.3851 103.884 44.1655 104.418L44.1528 104.448C43.9975 104.826 43.6988 105.127 43.3213 105.286L34.7168 108.904L34.3182 109.001L33.8306 108.973ZM58.7508 60.0216C55.9196 60.0216 53.055 57.6732 53.055 53.1816L53.6831 17.2645L35.2755 34.9624C35.0541 35.1755 34.7739 35.3179 34.4712 35.3719C33.8975 35.4741 33.3149 35.247 32.9623 34.7845L32.9409 34.7564C32.6959 34.4345 32.5868 34.0303 32.6369 33.6297L33.7892 24.4046L33.9066 24.0108L34.1723 23.6094L54.6199 2.52407L56.0652 1.08793C56.8591 0.371261 57.7963 0 58.7508 0C59.7033 0 60.6377 0.368727 61.3833 1.03725L62.8614 2.50912L83.3271 23.6094L83.5594 23.9396L83.7102 24.4046L84.8678 33.6046C84.9102 33.9421 84.8406 34.2845 84.6695 34.579C84.3622 35.1089 83.7719 35.4102 83.1611 35.3491L83.1003 35.343C82.7511 35.3083 82.4237 35.157 82.1712 34.914L63.8162 17.2645L64.4471 53.156C64.4471 57.6704 61.5823 60.0216 58.7508 60.0216Z" fill="white"/>
</svg>
